<?xml version="1.0" encoding="utf-8"?>
<!-- Generator: Adobe Illustrator 24.0.2, SVG Export Plug-In . SVG Version: 6.00 Build 0)  -->
<svg version="1.1" id="Layer_1" xmlns="http://www.w3.org/2000/svg" xmlns:xlink="http://www.w3.org/1999/xlink" x="0px" y="0px"
	 viewBox="0 0 432 288" style="enable-background:new 0 0 432 288;" xml:space="preserve">
<style type="text/css">
	.st0{fill:#E8762D;}
	.st1{fill:#C72037;}
	.st2{fill:#5B879B;}
	.st3{fill:#5C6692;}
	.st4{fill:#EB9129;}
	.st5{fill-rule:evenodd;clip-rule:evenodd;fill:#1F457E;}
	.st6{fill:#7199A6;}
	.st7{fill-rule:evenodd;clip-rule:evenodd;fill:#5B879B;}
	.st8{fill:#1F457E;}
</style>
<polygon class="st0" points="100.03,141.04 91.75,141.04 91.75,132.03 88.49,132.03 88.49,141.04 80.2,141.04 80.2,144.24 
	88.49,144.24 88.49,153.25 91.75,153.25 91.75,144.24 100.03,144.24 "/>
<polygon class="st1" points="83.37,155.75 75.95,155.75 75.95,147.68 73.14,147.68 73.14,155.75 65.71,155.75 65.71,158.21 
	73.14,158.21 73.14,166.27 75.95,166.27 75.95,158.21 83.37,158.21 "/>
<polygon class="st2" points="114.52,126.9 107.1,126.9 107.1,118.79 104.29,118.79 104.29,126.9 96.86,126.9 96.86,129.35 
	104.29,129.35 104.29,137.38 107.1,137.38 107.1,129.35 114.52,129.35 "/>
<polygon class="st3" points="96.4,164.7 91.36,164.7 91.36,159.07 88.96,159.07 88.96,164.7 83.93,164.7 83.93,166.87 88.96,166.87 
	88.96,172.5 91.36,172.5 91.36,166.87 96.4,166.87 "/>
<polygon class="st4" points="83.37,126.89 75.86,126.89 75.86,118.79 73.22,118.79 73.22,126.89 65.71,126.89 65.71,129.28 
	73.22,129.28 73.22,137.38 75.86,137.38 75.86,129.28 83.37,129.28 "/>
<polygon class="st3" points="120.23,141.55 115.19,141.55 115.19,135.93 112.79,135.93 112.79,141.55 107.75,141.55 107.75,143.73 
	112.79,143.73 112.79,149.35 115.19,149.35 115.19,143.73 120.23,143.73 "/>
<polygon class="st5" points="114.52,155.75 107.1,155.75 107.1,147.68 104.29,147.68 104.29,155.75 96.86,155.75 96.86,158.21 
	104.29,158.21 104.29,166.27 107.1,166.27 107.1,158.21 114.52,158.21 "/>
<polygon class="st6" points="89.27,113.04 89.27,118.56 84.29,118.56 84.29,120.23 89.27,120.23 89.27,125.75 91.06,125.75 
	91.06,120.23 96.04,120.23 96.04,118.56 91.06,118.56 91.06,113.04 "/>
<polygon class="st6" points="71.71,141.77 66.71,141.77 66.71,136.36 64.95,136.36 64.95,141.77 59.95,141.77 59.95,143.51 
	64.95,143.48 64.95,148.92 66.71,148.92 66.71,143.47 71.71,143.44 "/>
<g>
	<path class="st7" d="M147.36,173.44c0.61,0.37,1.27,0.55,1.98,0.55c1.43,0,2.25-0.66,2.25-1.69c0-0.63-0.25-1.11-0.75-1.42
		c-0.42-0.26-0.91-0.42-1.42-0.61c-0.52-0.19-0.77-0.4-0.77-0.63c0-0.29,0.28-0.46,0.83-0.46c0.52,0,1.13,0.2,1.86,0.57v-1.17
		c-0.65-0.32-1.31-0.47-1.94-0.47c-1.31,0-2.15,0.69-2.15,1.64c0,1.03,0.7,1.51,2.13,2.01c0.5,0.17,0.76,0.28,0.76,0.62
		c0,0.33-0.29,0.51-0.85,0.51c-0.64,0-1.23-0.27-1.94-0.72V173.44z"/>
	<path class="st7" d="M175.34,171.04c0,0.84,0.31,1.58,0.89,2.13c0.57,0.54,1.3,0.82,2.2,0.82c0.9,0,1.64-0.27,2.21-0.82
		c0.58-0.55,0.89-1.28,0.89-2.13c0-0.85-0.31-1.57-0.89-2.13c-0.57-0.54-1.31-0.81-2.21-0.81c-0.9,0-1.63,0.27-2.2,0.81
		C175.65,169.47,175.34,170.19,175.34,171.04 M176.81,171.04c0-1.03,0.68-1.75,1.63-1.75c0.94,0,1.63,0.72,1.63,1.75
		c0,1.03-0.68,1.74-1.63,1.74C177.49,172.79,176.81,172.07,176.81,171.04"/>
	<polygon class="st7" points="206.81,173.89 208.23,173.89 208.23,171.54 210.35,171.54 210.35,170.48 208.23,170.48 208.23,169.24 
		210.49,169.24 210.49,168.19 206.81,168.19 	"/>
	<polygon class="st7" points="237.1,173.89 238.6,173.89 238.6,169.25 240.49,169.25 240.49,168.19 235.22,168.19 235.22,169.25 
		237.1,169.25 	"/>
	<polygon class="st7" points="265.78,173.94 266.36,173.94 267.65,170.38 268.94,173.94 269.53,173.94 271.84,168.19 270.35,168.19 
		269.25,171.3 268.13,168.19 267.18,168.19 266.06,171.28 264.95,168.19 263.47,168.19 	"/>
	<path class="st7" d="M293.37,173.89h1.52l0.46-1.11h2.45l0.41,1.11h1.51l-2.22-5.69h-1.64L293.37,173.89z M295.76,171.8l0.88-2.17
		l0.8,2.17H295.76z"/>
	<path class="st7" d="M322.84,173.89h1.42v-2.32c0.06,0,0.11-0.01,0.17-0.01c0.56,0,0.81,0.18,1.03,0.68l0.73,1.64h1.61l-0.91-1.95
		c-0.17-0.37-0.39-0.61-0.68-0.72c0.69-0.31,0.99-0.75,0.99-1.38c0-1.14-0.74-1.65-2.27-1.65h-2.1V173.89z M324.95,170.52h-0.68
		v-1.32h0.68c0.51,0,0.79,0.24,0.79,0.66C325.73,170.31,325.48,170.52,324.95,170.52"/>
	<polygon class="st7" points="351.43,173.89 355.31,173.89 355.31,172.82 352.86,172.82 352.86,171.46 355.14,171.46 355.14,170.4 
		352.86,170.4 352.86,169.24 355.24,169.24 355.24,168.19 351.43,168.19 	"/>
	<path class="st5" d="M220.31,138c1.96-0.77,3.71-1,4.82-1c5.57,0,9.33,3.91,9.33,10.05c0,6.36-3.95,10.08-10.92,10.08
		c-2.42,0-4.79-0.47-7.28-1.31l-0.12-28.14h4.17V138z M223.96,153.3c3.89,0,6.13-2.23,6.13-6.21c0-3.91-2.25-6.25-5.75-6.25
		c-1.52,0-2.97,0.53-4.03,1.01v10.74C221.6,153.06,222.8,153.3,223.96,153.3"/>
	<rect x="251.78" y="123.73" class="st5" width="4.13" height="36.93"/>
	<path class="st5" d="M278.68,144.86h9.47c-0.11-2.52-1.46-3.83-3.87-3.98C281.85,140.72,279.5,142.28,278.68,144.86 M283.35,157.21
		c-6.35-0.62-9.45-5.08-9.27-10.38c0.19-5.72,3.89-9.78,9.54-9.78c5.92,0,9.35,4.38,9.06,10.84h-14.25c0.34,3.58,2.49,5.27,5.43,5.5
		c2.45,0.19,5.9-0.36,7.77-1.54v3.94C289.15,156.99,286.59,157.52,283.35,157.21"/>
	<path class="st5" d="M353.83,153.96c2.62,0,4.38-1.33,4.38-4.32v-12.22h4.17v12.73c0,4.25-3.3,6.85-8.55,6.85
		c-5.24,0-8.55-2.6-8.55-6.85v-12.73h4.17v12.22C349.44,152.62,351.21,153.96,353.83,153.96"/>
	<path class="st5" d="M188.7,157.13c-6.97,0.02-10.92-3.72-10.92-10.08c0-6.13,3.76-10.05,9.33-10.05c1.88,0,3.43,0.42,4.82,1.32
		v-1.41h4.17l-0.12,18.9C194.22,156.58,191.34,157.12,188.7,157.13 M188.28,153.3c0.95-0.01,2.1-0.08,3.57-0.45l0.08-10.66
		c-1.34-0.92-2.62-1.35-4.02-1.35c-3.5,0-5.75,2.35-5.75,6.25C182.15,151.07,184.39,153.35,188.28,153.3"/>
	<path class="st5" d="M320.36,157.13c-6.97,0.02-10.92-3.72-10.92-10.08c0-6.13,3.76-10.05,9.33-10.05c1.88,0,3.43,0.42,4.82,1.32
		v-1.41h4.17l-0.12,18.9C325.89,156.58,323.01,157.12,320.36,157.13 M319.95,153.3c0.82,0,2.1-0.08,3.57-0.45l0.08-10.66
		c-1.33-0.92-2.62-1.35-4.02-1.35c-3.5,0-5.75,2.35-5.75,6.25C313.82,151.07,316.05,153.3,319.95,153.3"/>
</g>
<g>
	<polygon class="st8" points="146.77,129.01 150.89,129.01 150.89,140.73 162.04,140.73 162.04,144.58 150.89,144.58 150.89,157.28 
		146.77,157.28 146.77,144.58 135.62,144.58 135.62,140.73 146.77,140.73 	"/>
	<path class="st8" d="M369.23,137.26c1.35,0,2.43,1.1,2.43,2.47c0,1.4-1.08,2.48-2.44,2.48c-1.35,0-2.45-1.09-2.45-2.48
		C366.77,138.35,367.87,137.26,369.23,137.26L369.23,137.26z M369.22,137.64c-1.09,0-1.98,0.93-1.98,2.09c0,1.18,0.89,2.1,1.99,2.1
		c1.1,0.01,1.98-0.92,1.98-2.09C371.21,138.58,370.33,137.64,369.22,137.64L369.22,137.64z M368.76,141.17h-0.44v-2.76
		c0.23-0.03,0.45-0.07,0.78-0.07c0.42,0,0.69,0.09,0.86,0.21c0.16,0.12,0.25,0.31,0.25,0.57c0,0.36-0.24,0.58-0.54,0.67v0.02
		c0.24,0.05,0.41,0.26,0.46,0.67c0.07,0.43,0.13,0.59,0.17,0.68h-0.46c-0.07-0.09-0.13-0.34-0.19-0.7
		c-0.07-0.35-0.24-0.48-0.59-0.48h-0.31V141.17z M368.76,139.64h0.32c0.36,0,0.67-0.13,0.67-0.47c0-0.24-0.17-0.48-0.67-0.48
		c-0.14,0-0.24,0.01-0.32,0.02V139.64z"/>
</g>
</svg>
